<svg width="391" height="75" viewBox="0 0 391 75" fill="none" xmlns="http://www.w3.org/2000/svg">
<path d="M372.92 21.76C378.808 21.76 383.224 23.392 386.168 26.656C389.112 29.92 390.584 34.624 390.584 40.768V73.6H371.48V43.072C371.48 40.896 370.904 39.168 369.752 37.888C368.664 36.544 367.096 35.872 365.048 35.872C362.68 35.872 360.76 36.64 359.288 38.176C357.816 39.712 357.08 41.6 357.08 43.84V73.6H337.976V22.912H353.624L354.872 30.592C356.856 27.904 359.448 25.76 362.648 24.16C365.912 22.56 369.336 21.76 372.92 21.76Z" fill="black"/>
<path d="M285.752 21.76C295.032 21.76 302.104 23.936 306.968 28.288C311.896 32.64 314.361 39.296 314.361 48.256V51.52H276.344C276.344 55.168 277.144 57.92 278.744 59.776C280.408 61.632 283 62.56 286.52 62.56C289.72 62.56 292.056 61.888 293.528 60.544C295.064 59.2 295.832 57.408 295.832 55.168H314.361C314.361 61.312 312.024 66.112 307.352 69.568C302.68 73.024 295.864 74.752 286.904 74.752C277.496 74.752 270.2 72.576 265.016 68.224C259.832 63.808 257.24 57.152 257.24 48.256C257.24 39.552 259.768 32.96 264.824 28.48C269.88 24 276.856 21.76 285.752 21.76ZM286.52 33.952C280.504 33.952 277.144 36.8 276.44 42.496H295.064C295.064 39.872 294.296 37.792 292.76 36.256C291.288 34.72 289.208 33.952 286.52 33.952Z" fill="black"/>
<path d="M215.97 60.64H238.338V73.6H188.898V67.36L210.21 35.872H190.05V22.912H237.474V28.864L215.97 60.64Z" fill="black"/>
<path d="M147.042 16.96V4H166.145V16.96H147.042ZM147.042 73.6V22.912H166.145V73.6H147.042Z" fill="black"/>
<path d="M120.129 21.664C121.601 21.664 122.913 21.856 124.065 22.24C125.217 22.56 125.793 22.752 125.793 22.816V38.848H119.649C115.681 38.848 112.801 39.872 111.009 41.92C109.281 43.968 108.417 47.008 108.417 51.04V73.6H89.3132V22.912H104.961L106.209 30.592C107.361 27.648 109.185 25.44 111.681 23.968C114.177 22.432 116.993 21.664 120.129 21.664Z" fill="black"/>
<path d="M34.72 6.39999C43.168 6.39999 50.112 8.12799 55.552 11.584C60.992 14.976 63.776 20.032 63.904 26.752V27.904H44.032V27.52C44.032 25.6 43.328 24 41.92 22.72C40.512 21.44 38.368 20.8 35.488 20.8C32.672 20.8 30.496 21.216 28.96 22.048C27.488 22.88 26.752 23.904 26.752 25.12C26.752 26.848 27.776 28.128 29.824 28.96C31.872 29.792 35.168 30.656 39.712 31.552C45.024 32.64 49.376 33.792 52.768 35.008C56.224 36.16 59.232 38.08 61.792 40.768C64.352 43.456 65.664 47.104 65.728 51.712C65.728 59.52 63.072 65.312 57.76 69.088C52.512 72.864 45.472 74.752 36.64 74.752C26.336 74.752 18.304 73.024 12.544 69.568C6.848 66.112 4 60 4 51.232H24.064C24.064 54.56 24.928 56.8 26.656 57.952C28.384 59.04 31.072 59.584 34.72 59.584C37.408 59.584 39.616 59.296 41.344 58.72C43.136 58.144 44.032 56.96 44.032 55.168C44.032 53.568 43.04 52.384 41.056 51.616C39.136 50.784 35.968 49.92 31.552 49.024C26.176 47.872 21.728 46.688 18.208 45.472C14.688 44.192 11.616 42.112 8.992 39.232C6.368 36.352 5.056 32.448 5.056 27.52C5.056 20.288 7.84 14.976 13.408 11.584C19.04 8.12799 26.144 6.39999 34.72 6.39999Z" fill="black"/>
<path d="M368.92 17.76C374.808 17.76 379.224 19.392 382.168 22.656C385.112 25.92 386.584 30.624 386.584 36.768V69.6H367.48V39.072C367.48 36.896 366.904 35.168 365.752 33.888C364.664 32.544 363.096 31.872 361.048 31.872C358.68 31.872 356.76 32.64 355.288 34.176C353.816 35.712 353.08 37.6 353.08 39.84V69.6H333.976V18.912H349.624L350.872 26.592C352.856 23.904 355.448 21.76 358.648 20.16C361.912 18.56 365.336 17.76 368.92 17.76Z" fill="#00D6BD"/>
<path d="M281.752 17.76C291.032 17.76 298.104 19.936 302.968 24.288C307.896 28.64 310.361 35.296 310.361 44.256V47.52H272.344C272.344 51.168 273.144 53.92 274.744 55.776C276.408 57.632 279 58.56 282.52 58.56C285.72 58.56 288.056 57.888 289.528 56.544C291.064 55.2 291.832 53.408 291.832 51.168H310.361C310.361 57.312 308.024 62.112 303.352 65.568C298.68 69.024 291.864 70.752 282.904 70.752C273.496 70.752 266.2 68.576 261.016 64.224C255.832 59.808 253.24 53.152 253.24 44.256C253.24 35.552 255.768 28.96 260.824 24.48C265.88 20 272.856 17.76 281.752 17.76ZM282.52 29.952C276.504 29.952 273.144 32.8 272.44 38.496H291.064C291.064 35.872 290.296 33.792 288.76 32.256C287.288 30.72 285.208 29.952 282.52 29.952Z" fill="#00D6BD"/>
<path d="M211.97 56.64H234.338V69.6H184.898V63.36L206.21 31.872H186.05V18.912H233.474V24.864L211.97 56.64Z" fill="#00D6BD"/>
<path d="M143.042 12.96V0H162.145V12.96H143.042ZM143.042 69.6V18.912H162.145V69.6H143.042Z" fill="#00D6BD"/>
<path d="M116.129 17.664C117.601 17.664 118.913 17.856 120.065 18.24C121.217 18.56 121.793 18.752 121.793 18.816V34.848H115.649C111.681 34.848 108.801 35.872 107.009 37.92C105.281 39.968 104.417 43.008 104.417 47.04V69.6H85.3132V18.912H100.961L102.209 26.592C103.361 23.648 105.185 21.44 107.681 19.968C110.177 18.432 112.993 17.664 116.129 17.664Z" fill="#00D6BD"/>
<path d="M30.72 2.39999C39.168 2.39999 46.112 4.12799 51.552 7.584C56.992 10.976 59.776 16.032 59.904 22.752V23.904H40.032V23.52C40.032 21.6 39.328 20 37.92 18.72C36.512 17.44 34.368 16.8 31.488 16.8C28.672 16.8 26.496 17.216 24.96 18.048C23.488 18.88 22.752 19.904 22.752 21.12C22.752 22.848 23.776 24.128 25.824 24.96C27.872 25.792 31.168 26.656 35.712 27.552C41.024 28.64 45.376 29.792 48.768 31.008C52.224 32.16 55.232 34.08 57.792 36.768C60.352 39.456 61.664 43.104 61.728 47.712C61.728 55.52 59.072 61.312 53.76 65.088C48.512 68.864 41.472 70.752 32.64 70.752C22.336 70.752 14.304 69.024 8.544 65.568C2.848 62.112 0 56 0 47.232H20.064C20.064 50.56 20.928 52.8 22.656 53.952C24.384 55.04 27.072 55.584 30.72 55.584C33.408 55.584 35.616 55.296 37.344 54.72C39.136 54.144 40.032 52.96 40.032 51.168C40.032 49.568 39.04 48.384 37.056 47.616C35.136 46.784 31.968 45.92 27.552 45.024C22.176 43.872 17.728 42.688 14.208 41.472C10.688 40.192 7.616 38.112 4.992 35.232C2.368 32.352 1.056 28.448 1.056 23.52C1.056 16.288 3.84 10.976 9.408 7.584C15.04 4.12799 22.144 2.39999 30.72 2.39999Z" fill="#00D6BD"/>
</svg>
