<svg width="259" height="48" viewBox="0 0 259 48" fill="none" xmlns="http://www.w3.org/2000/svg">
<path d="M21.232 2.2C26.864 2.2 31.4933 3.352 35.12 5.656C38.7467 7.91733 40.6027 11.288 40.688 15.768V16.536H27.44V16.28C27.44 15 26.9707 13.9333 26.032 13.08C25.0933 12.2267 23.664 11.8 21.744 11.8C19.8667 11.8 18.416 12.0773 17.392 12.632C16.4107 13.1867 15.92 13.8693 15.92 14.68C15.92 15.832 16.6027 16.6853 17.968 17.24C19.3333 17.7947 21.5307 18.3707 24.56 18.968C28.1013 19.6933 31.0027 20.4613 33.264 21.272C35.568 22.04 37.5733 23.32 39.28 25.112C40.9867 26.904 41.8613 29.336 41.904 32.408C41.904 37.6133 40.1333 41.4747 36.592 43.992C33.0933 46.5093 28.4 47.768 22.512 47.768C15.6427 47.768 10.288 46.616 6.448 44.312C2.65067 42.008 0.752 37.9333 0.752 32.088H14.128C14.128 34.3067 14.704 35.8 15.856 36.568C17.008 37.2933 18.8 37.656 21.232 37.656C23.024 37.656 24.496 37.464 25.648 37.08C26.8427 36.696 27.44 35.9067 27.44 34.712C27.44 33.6453 26.7787 32.856 25.456 32.344C24.176 31.7893 22.064 31.2133 19.12 30.616C15.536 29.848 12.5707 29.0587 10.224 28.248C7.87733 27.3947 5.82933 26.008 4.08 24.088C2.33067 22.168 1.456 19.5653 1.456 16.28C1.456 11.4587 3.312 7.91733 7.024 5.656C10.7787 3.352 15.5147 2.2 21.232 2.2ZM78.1715 12.376C79.1528 12.376 80.0275 12.504 80.7955 12.76C81.5635 12.9733 81.9475 13.1013 81.9475 13.144V23.832H77.8515C75.2062 23.832 73.2862 24.5147 72.0915 25.88C70.9395 27.2453 70.3635 29.272 70.3635 31.96V47H57.6275V13.208H68.0595L68.8915 18.328C69.6595 16.3653 70.8755 14.8933 72.5395 13.912C74.2035 12.888 76.0808 12.376 78.1715 12.376ZM96.113 9.24V0.599998H108.849V9.24H96.113ZM96.113 47V13.208H108.849V47H96.113ZM142.066 38.36H156.978V47H124.018V42.84L138.226 21.848H124.786V13.208H156.402V17.176L142.066 38.36ZM188.587 12.44C194.774 12.44 199.488 13.8907 202.731 16.792C206.016 19.6933 207.659 24.1307 207.659 30.104V32.28H182.315C182.315 34.712 182.848 36.5467 183.915 37.784C185.024 39.0213 186.752 39.64 189.099 39.64C191.232 39.64 192.79 39.192 193.771 38.296C194.795 37.4 195.307 36.2053 195.307 34.712H207.659C207.659 38.808 206.102 42.008 202.987 44.312C199.872 46.616 195.328 47.768 189.355 47.768C183.083 47.768 178.219 46.3173 174.763 43.416C171.307 40.472 169.579 36.0347 169.579 30.104C169.579 24.3013 171.264 19.9067 174.635 16.92C178.006 13.9333 182.656 12.44 188.587 12.44ZM189.099 20.568C185.088 20.568 182.848 22.4667 182.379 26.264H194.795C194.795 24.5147 194.283 23.128 193.259 22.104C192.278 21.08 190.891 20.568 189.099 20.568ZM246.699 12.44C250.624 12.44 253.568 13.528 255.531 15.704C257.493 17.88 258.475 21.016 258.475 25.112V47H245.739V26.648C245.739 25.1973 245.355 24.0453 244.587 23.192C243.861 22.296 242.816 21.848 241.451 21.848C239.872 21.848 238.592 22.36 237.611 23.384C236.629 24.408 236.139 25.6667 236.139 27.16V47H223.403V13.208H233.835L234.667 18.328C235.989 16.536 237.717 15.1067 239.851 14.04C242.027 12.9733 244.309 12.44 246.699 12.44Z" fill="#00D6BD"/>
</svg>
